<svg height="31" viewBox="0 0 147 31" width="147" xmlns="http://www.w3.org/2000/svg" xmlns:xlink="http://www.w3.org/1999/xlink"><mask id="a" fill="#fff"><path d="m.06.015h5.256v5.214h-5.257z" fill="#fff" fill-rule="evenodd"/></mask><g fill="#e11c3e" fill-rule="evenodd"><path d="m12.987 23.446c-.526.189-1.731.314-2.504.314-2.412 0-4.175-.816-5.195-2.198-.773-1.037-1.114-2.387-1.114-4.555v-5.34h-4.174v-3.455h4.174v-4.24h4.02v4.24h4.948v3.455h-4.948v5.811c0 .942.155 1.508.495 1.916.402.472 1.051.754 2.041.754a9.67 9.67 0 0 0 1.639-.157zm6.803 0h-4.02v-22.301h4.02v8.167a6.575 6.575 0 0 1 4.08-1.414c2.072 0 3.959.943 5.196 2.45.99 1.194 1.546 2.733 1.546 5.34v7.758h-4.02v-8.072c0-1.508-.34-2.293-.897-2.858-.525-.535-1.33-.849-2.257-.849-1.7 0-3.092 1.1-3.649 1.885v9.894z"/><path d="m2.687.015c1.454 0 2.629 1.13 2.629 2.607 0 1.476-1.175 2.607-2.629 2.607-1.453.001-2.627-1.129-2.627-2.607 0-1.476 1.174-2.607 2.627-2.607" mask="url(#a)" transform="translate(33.11 .188)"/><path d="m42.207 18.798c1.02.942 2.597 1.507 4.112 1.507 1.083 0 1.917-.534 1.917-1.287 0-2.293-7.266-1.477-7.266-6.377 0-2.921 2.783-4.743 5.752-4.743 1.948 0 4.081.754 5.07 1.54l-1.886 2.952c-.773-.565-1.793-1.036-2.875-1.036-1.114 0-2.041.439-2.041 1.225 0 1.978 7.266 1.193 7.266 6.47 0 2.92-2.814 4.711-5.968 4.711-2.071 0-4.267-.722-6.03-2.041zm26.622 1.539c-1.763 2.387-3.99 3.423-6.803 3.423-4.638 0-8.04-3.518-8.04-7.915 0-4.429 3.494-7.947 8.071-7.947 2.597 0 4.916 1.225 6.308 3.047l-2.845 2.545c-.804-1.068-2.01-1.822-3.463-1.822-2.32 0-4.05 1.854-4.05 4.178 0 2.387 1.7 4.146 4.143 4.146 1.638 0 2.937-1.005 3.586-2.01l3.093 2.356zm8.721-.346c2.35 0 3.957-1.853 3.957-4.146s-1.608-4.178-3.958-4.178-3.957 1.885-3.957 4.178 1.607 4.146 3.957 4.146m0-12.093c4.546 0 7.978 3.55 7.978 7.947s-3.432 7.915-7.978 7.915c-4.545 0-7.977-3.518-7.977-7.915s3.432-7.947 7.977-7.947m16.107 9.612 4.112-9.298h4.175l-6.895 15.234h-2.784l-6.894-15.234h4.174zm18.488-3.644c-.123-1.35-1.33-2.67-2.968-2.67-1.67 0-3.03 1.288-3.216 2.67zm3.742 7.162c-1.453 1.759-3.835 2.732-6.153 2.732-4.484 0-7.854-3.14-7.854-7.915 0-4.24 2.844-7.947 7.297-7.947 4.143 0 7.08 3.55 7.08 7.79 0 .408-.03.817-.092 1.162h-10.39c.217 2.136 1.918 3.612 4.051 3.612 1.7 0 3.061-.973 3.772-1.758zm11.938-9.204c-.278-.094-.866-.157-1.453-.157-1.763 0-3.154 1.288-3.649 2.2v9.58h-4.02v-15.236h3.866v1.54c.896-1.131 2.535-1.854 4.36-1.854.587 0 .927.063 1.36.126l-.464 3.8zm4.456 19.161 4.144-9.078-6.71-13.695h4.422l4.39 9.14 4.051-9.14h4.236l-10.327 22.773z"/></g></svg>